HIERARCHY
ROOT Hips
{
  OFFSET 0 0 0
  CHANNELS 6 Xposition Yposition Zposition Zrotation Yrotation Xrotation
  JOINT LeftThigh
  {
    OFFSET 8.409438 0 -5.917753
    CHANNELS 3 Zrotation Yrotation Xrotation
    JOINT LeftLeg
    {
      OFFSET 0 0 -42.358652
      CHANNELS 3 Zrotation Yrotation Xrotation
      JOINT LeftFoot
      {
        OFFSET 0 0 -39.357303
        CHANNELS 3 Zrotation Yrotation Xrotation
      }
    }
  }
  JOINT RightThigh
  {
    OFFSET -8.409438 0 -5.917753
    CHANNELS 3 Zrotation Yrotation Xrotation
    JOINT RightLeg
    {
      OFFSET 0 0 -42.358652
      CHANNELS 3 Zrotation Yrotation Xrotation
      JOINT RightFoot
      {
        OFFSET 0 0 -39.357303
        CHANNELS 3 Zrotation Yrotation Xrotation
      }
    }
  }
  JOINT SpineLow
  {
    OFFSET 0 0 4.719101
    CHANNELS 3 Zrotation Yrotation Xrotation
    JOINT SpineMid
    {
      OFFSET 0 0 12.899191
      CHANNELS 3 Zrotation Yrotation Xrotation
      JOINT Chest
      {
        OFFSET 0 0 12.899191
        CHANNELS 3 Zrotation Yrotation Xrotation
        JOINT LeftShoulder
        {
          OFFSET 7.550562 1.41573 9.438202
          CHANNELS 3 Zrotation Yrotation Xrotation
          JOINT LeftArm
          {
            OFFSET 9.155056 0 4.247191
            CHANNELS 3 Zrotation Yrotation Xrotation
            JOINT LeftForearm
            {
              OFFSET 0 0 25.771955
              CHANNELS 3 Zrotation Yrotation Xrotation
              JOINT LeftHand
              {
                OFFSET 0 0 25.197169
                CHANNELS 3 Zrotation Yrotation Xrotation
              }
            }
          }
        }
        JOINT RightShoulder
        {
          OFFSET -7.550562 1.41573 9.438202
          CHANNELS 3 Zrotation Yrotation Xrotation
          JOINT RightArm
          {
            OFFSET -9.155056 0 4.247191
            CHANNELS 3 Zrotation Yrotation Xrotation
            JOINT RightForearm
            {
              OFFSET 0 0 -25.771955
              CHANNELS 3 Zrotation Yrotation Xrotation
              JOINT RightHand
              {
                OFFSET 0 0 -25.197169
                CHANNELS 3 Zrotation Yrotation Xrotation
              }
            }
          }
        }
        JOINT Neck
        {
          OFFSET 0 0 15.101124
          CHANNELS 3 Zrotation Yrotation Xrotation
          JOINT Head
          {
            OFFSET 0 0 11.325843
            CHANNELS 3 Zrotation Yrotation Xrotation
            End Site
            {
              OFFSET 0 0 14.157303
            }
          }
        }
      }
    }
  }
}
MOTION
Frames: 5
Frame Time: 0.0
0.0  101.685394  0.0  2.0481  3.670639  -116.618526  23.474543  -21.191111  7.49951  -31.564174  21.197675  19.428307  -5.235957  2.520022  -0.472273  0.429574  -10.670082  -95.279539  31.870811  7.448507  121.984285  14.493249  -4.730369  8.670435  -4.403248  1.309504  3.688498  -11.818597  4.226096  9.817688  -11.818596  4.226096  9.817687  2.956745  10.89718  15.783204  -81.425455  79.460588  -35.324353  -45.556611  -40.967193  67.094729  69.442391  2.874467  -13.197377  47.516063  2.565549  11.51275  175.719127  77.521841  133.17129  -48.746439  7.5363  -66.488636  105.101159  -29.911049  6.937747  6.235802  -2.123869  -0.162967  4.67575  -1.594761  -0.100542  
0.0  101.685394  0.0  1.733955  4.124581  -117.698185  22.98895  -21.553363  8.487066  -32.343844  21.121581  19.630221  -5.029204  2.591398  -0.487939  -0.366397  -10.955329  -98.31033  32.713684  6.067117  120.541411  14.364428  -7.400396  8.780683  -4.556556  1.258929  3.726726  -12.241308  4.117945  9.919808  -12.241309  4.117945  9.919807  3.996378  13.050655  16.981559  -108.041118  80.340535  -61.189338  -46.885327  -42.606878  72.713043  69.821924  3.380277  -10.941568  46.166724  1.52116  13.203734  163.38664  79.662311  118.805997  -49.997855  8.935767  -70.633224  104.74992  -29.623686  8.385261  6.311309  -1.910819  0.152318  4.733519  -1.431723  0.133986  
0.0  101.685394  0.0  1.393059  4.405844  -118.678505  22.078602  -21.668979  9.38967  -32.352325  20.971119  20.102587  -4.658201  2.649764  -0.407461  -0.768784  -11.404538  -101.182598  33.586477  4.926254  118.680233  14.060941  -10.237054  9.149994  -4.692277  1.181273  3.72427  -12.622501  3.926518  9.917588  -12.622501  3.926518  9.917588  5.307265  15.71051  18.3468  -131.289862  79.734593  -83.93803  -48.020078  -42.497353  78.077515  70.413836  3.96033  -8.246662  44.297325  0.510128  15.4983  147.077326  80.746136  100.112955  -50.821597  9.76361  -75.055884  103.882944  -29.408623  10.319777  6.304223  -1.65509  0.482172  4.729147  -1.2365  0.378729  
0.0  101.685394  0.0  1.084988  4.494381  -119.406565  21.236441  -21.742795  10.18544  -32.152685  20.798593  20.431928  -4.521922  2.746642  -0.367222  -0.954181  -11.843894  -104.127667  34.04419  3.742811  116.723384  13.505881  -12.914029  9.544832  -4.712395  1.077078  3.690635  -12.693685  3.640181  9.843437  -12.693685  3.640181  9.843438  6.107967  18.115135  19.892809  -150.942905  78.090693  -103.313913  -48.937394  -41.250012  82.810297  70.969402  4.344807  -5.00358  41.32903  -0.344595  18.788529  132.708773  80.990787  82.941913  -51.04926  10.360975  -79.460567  102.948117  -29.597198  12.758859  5.928629  -1.43277  0.653781  4.447778  -1.068356  0.504269  
0.0  101.685394  0.0  0.82564  4.524731  -119.883678  20.667627  -21.750324  10.810776  -31.852782  20.490699  20.821806  -4.705218  2.820405  -0.440417  -1.065333  -12.064484  -107.206999  34.006883  2.519829  114.900951  12.901597  -15.446187  9.860931  -4.902711  0.988073  3.482613  -13.237337  3.385208  9.281852  -13.237337  3.385208  9.281852  7.853341  20.673346  21.991882  -168.241054  75.628502  -120.720941  -49.357805  -39.5716  86.648472  71.614521  4.631716  -2.672907  39.558431  -1.407741  23.074071  120.343267  79.951455  67.834927  -51.008379  11.347747  -82.976307  102.696728  -30.420157  14.540757  6.206677  -1.056257  1.130067  4.656848  -0.780815  0.85836  
